<?xml version="1.0" encoding="UTF-8" standalone="no"?><svg xmlns="http://www.w3.org/2000/svg" xmlns:xlink="http://www.w3.org/1999/xlink" contentStyleType="text/css" height="240px" preserveAspectRatio="none" style="width:118px;height:240px;background:#FFFFFF;" version="1.1" viewBox="0 0 118 240" width="118px" zoomAndPan="magnify"><defs/><g><line style="stroke:#181818;stroke-width:0.5;stroke-dasharray:5.0,5.0;" x1="26" x2="26" y1="81.2969" y2="159.5625"/><line style="stroke:#181818;stroke-width:0.5;stroke-dasharray:5.0,5.0;" x1="98" x2="98" y1="81.2969" y2="159.5625"/><rect fill="#E2E2F0" height="30.2969" rx="2.5" ry="2.5" style="stroke:#181818;stroke-width:0.5;" width="42" x="5" y="50"/><text fill="#000000" font-family="sans-serif" font-size="14" lengthAdjust="spacing" textLength="28" x="12" y="69.9951">Bob</text><rect fill="#E2E2F0" height="30.2969" rx="2.5" ry="2.5" style="stroke:#181818;stroke-width:0.5;" width="42" x="5" y="158.5625"/><text fill="#000000" font-family="sans-serif" font-size="14" lengthAdjust="spacing" textLength="28" x="12" y="178.5576">Bob</text><text fill="#000000" font-family="sans-serif" font-size="14" lengthAdjust="spacing" textLength="32" x="79" y="77.9951">Alice</text><ellipse cx="98" cy="13.5" fill="#E2E2F0" rx="8" ry="8" style="stroke:#181818;stroke-width:0.5;"/><path d="M98,21.5 L98,48.5 M85,29.5 L111,29.5 M98,48.5 L85,63.5 M98,48.5 L111,63.5 " fill="none" style="stroke:#181818;stroke-width:0.5;"/><text fill="#000000" font-family="sans-serif" font-size="14" lengthAdjust="spacing" textLength="32" x="79" y="171.5576">Alice</text><ellipse cx="98" cy="183.3594" fill="#E2E2F0" rx="8" ry="8" style="stroke:#181818;stroke-width:0.5;"/><path d="M98,191.3594 L98,218.3594 M85,199.3594 L111,199.3594 M98,218.3594 L85,233.3594 M98,218.3594 L111,233.3594 " fill="none" style="stroke:#181818;stroke-width:0.5;"/><polygon fill="#181818" points="86,108.4297,96,112.4297,86,116.4297,90,112.4297" style="stroke:#181818;stroke-width:1.0;"/><line style="stroke:#181818;stroke-width:1.0;" x1="26" x2="92" y1="112.4297" y2="112.4297"/><text fill="#000000" font-family="sans-serif" font-size="13" lengthAdjust="spacing" textLength="30" x="33" y="107.3638">hello</text><polygon fill="#181818" points="37,137.5625,27,141.5625,37,145.5625,33,141.5625" style="stroke:#181818;stroke-width:1.0;"/><line style="stroke:#181818;stroke-width:1.0;" x1="31" x2="97" y1="141.5625" y2="141.5625"/><text fill="#000000" font-family="sans-serif" font-size="13" lengthAdjust="spacing" textLength="48" x="43" y="136.4966">Is it ok?</text><!--MD5=[983f22c61fba2759d348a943316e0bfb]
@startuml
participant Bob
actor Alice

Bob -> Alice : hello
Alice -> Bob : Is it ok?
@enduml

PlantUML version 1.2022.7(Tue Aug 23 01:01:30 CST 2022)
(GPL source distribution)
Java Runtime: OpenJDK Runtime Environment
JVM: OpenJDK 64-Bit Server VM
Default Encoding: UTF-8
Language: en
Country: US
--></g></svg>