<?xml version="1.0" encoding="UTF-8" standalone="no"?><svg xmlns="http://www.w3.org/2000/svg" xmlns:xlink="http://www.w3.org/1999/xlink" contentStyleType="text/css" height="350px" preserveAspectRatio="none" style="width:371px;height:350px;background:#FFFFFF;" version="1.1" viewBox="0 0 371 350" width="371px" zoomAndPan="magnify"><defs/><g><line style="stroke:#181818;stroke-width:0.5;stroke-dasharray:5.0,5.0;" x1="41" x2="41" y1="81.2969" y2="343.7578"/><line style="stroke:#181818;stroke-width:0.5;stroke-dasharray:5.0,5.0;" x1="124" x2="124" y1="81.2969" y2="343.7578"/><line style="stroke:#181818;stroke-width:0.5;stroke-dasharray:5.0,5.0;" x1="220" x2="220" y1="81.2969" y2="343.7578"/><line style="stroke:#181818;stroke-width:0.5;stroke-dasharray:5.0,5.0;" x1="350" x2="350" y1="81.2969" y2="343.7578"/><rect fill="#E2E2F0" height="46.5938" rx="2.5" ry="2.5" style="stroke:#181818;stroke-width:0.5;" width="73" x="5" y="33.7031"/><text fill="#000000" font-family="sans-serif" font-size="14" lengthAdjust="spacing" textLength="35" x="24" y="53.6982">Local</text><text fill="#000000" font-family="sans-serif" font-size="14" lengthAdjust="spacing" textLength="59" x="12" y="69.9951">boxk8s1</text><rect fill="#E2E2F0" height="46.5938" rx="2.5" ry="2.5" style="stroke:#181818;stroke-width:0.5;" width="73" x="88" y="33.7031"/><text fill="#000000" font-family="sans-serif" font-size="14" lengthAdjust="spacing" textLength="35" x="107" y="53.6982">Local</text><text fill="#000000" font-family="sans-serif" font-size="14" lengthAdjust="spacing" textLength="59" x="95" y="69.9951">boxk8s2</text><rect fill="#E2E2F0" height="46.5938" rx="2.5" ry="2.5" style="stroke:#181818;stroke-width:0.5;" width="98" x="171" y="33.7031"/><text fill="#000000" font-family="sans-serif" font-size="14" lengthAdjust="spacing" textLength="35" x="202.5" y="53.6982">Local</text><text fill="#000000" font-family="sans-serif" font-size="14" lengthAdjust="spacing" textLength="84" x="178" y="69.9951">API Gateway</text><text fill="#000000" font-family="sans-serif" font-size="14" lengthAdjust="spacing" textLength="32" x="331" y="77.9951">Alice</text><ellipse cx="350" cy="13.5" fill="#E2E2F0" rx="8" ry="8" style="stroke:#181818;stroke-width:0.5;"/><path d="M350,21.5 L350,48.5 M337,29.5 L363,29.5 M350,48.5 L337,63.5 M350,48.5 L363,63.5 " fill="none" style="stroke:#181818;stroke-width:0.5;"/><polygon fill="#181818" points="338,123.5625,348,127.5625,338,131.5625,342,127.5625" style="stroke:#181818;stroke-width:1.0;"/><line style="stroke:#181818;stroke-width:1.0;" x1="41.5" x2="344" y1="127.5625" y2="127.5625"/><text fill="#000000" font-family="sans-serif" font-size="13" font-weight="bold" lengthAdjust="spacing" textLength="18" x="48.5" y="114.9302">10</text><text fill="#000000" font-family="sans-serif" font-size="13" lengthAdjust="spacing" textLength="69" x="70.5" y="107.3638">swagger-ui</text><text fill="#000000" font-family="sans-serif" font-size="13" lengthAdjust="spacing" textLength="62" x="70.5" y="122.4966">port:8300</text><polygon fill="#181818" points="338,167.8281,348,171.8281,338,175.8281,342,171.8281" style="stroke:#181818;stroke-width:1.0;"/><line style="stroke:#181818;stroke-width:1.0;" x1="41.5" x2="344" y1="171.8281" y2="171.8281"/><text fill="#000000" font-family="sans-serif" font-size="13" font-weight="bold" lengthAdjust="spacing" textLength="18" x="48.5" y="159.1958">11</text><text fill="#000000" font-family="sans-serif" font-size="13" lengthAdjust="spacing" textLength="249" x="70.5" y="151.6294">kubernetes/openapi-spec/swagger.json</text><text fill="#000000" font-family="sans-serif" font-size="13" lengthAdjust="spacing" textLength="62" x="70.5" y="166.7622">port:8300</text><polygon fill="#181818" points="338,212.0938,348,216.0938,338,220.0938,342,216.0938" style="stroke:#181818;stroke-width:1.0;"/><line style="stroke:#181818;stroke-width:1.0;" x1="124.5" x2="344" y1="216.0938" y2="216.0938"/><text fill="#000000" font-family="sans-serif" font-size="13" font-weight="bold" lengthAdjust="spacing" textLength="18" x="131.5" y="203.4614">20</text><text fill="#000000" font-family="sans-serif" font-size="13" lengthAdjust="spacing" textLength="69" x="153.5" y="195.895">swagger-ui</text><text fill="#000000" font-family="sans-serif" font-size="13" lengthAdjust="spacing" textLength="62" x="153.5" y="211.0278">port:8310</text><polygon fill="#181818" points="208,266.9258,218,270.9258,208,274.9258,212,270.9258" style="stroke:#181818;stroke-width:1.0;"/><line style="stroke:#181818;stroke-width:1.0;" x1="41.5" x2="214" y1="270.9258" y2="270.9258"/><text fill="#000000" font-family="sans-serif" font-size="13" font-weight="bold" lengthAdjust="spacing" textLength="18" x="48.5" y="258.2935">21</text><text fill="#000000" font-family="sans-serif" font-size="13" lengthAdjust="spacing" textLength="87" x="70.5" y="250.7271">/swagger.json</text><text fill="#000000" font-family="sans-serif" font-size="13" lengthAdjust="spacing" textLength="62" x="70.5" y="265.8599">port:3000</text><path d="M225,229.0938 L225,284.0938 L364,284.0938 L364,239.0938 L354,229.0938 L225,229.0938 " fill="#FEFFDD" style="stroke:#181818;stroke-width:0.5;"/><path d="M354,229.0938 L354,239.0938 L364,239.0938 L354,229.0938 " fill="#FEFFDD" style="stroke:#181818;stroke-width:0.5;"/><text fill="#000000" font-family="sans-serif" font-size="13" lengthAdjust="spacing" textLength="118" x="231" y="246.1606">API Gateway/Proxy</text><text fill="#000000" font-family="sans-serif" font-size="13" lengthAdjust="spacing" textLength="94" x="231" y="261.2935">Enabling CORS</text><text fill="#000000" font-family="sans-serif" font-size="13" lengthAdjust="spacing" textLength="95" x="231" y="276.4263">allow_origins: *</text><polygon fill="#181818" points="338,321.7578,348,325.7578,338,329.7578,342,325.7578" style="stroke:#181818;stroke-width:1.0;"/><line style="stroke:#181818;stroke-width:1.0;" x1="220" x2="344" y1="325.7578" y2="325.7578"/><text fill="#000000" font-family="sans-serif" font-size="13" font-weight="bold" lengthAdjust="spacing" textLength="18" x="227" y="313.1255">22</text><text fill="#000000" font-family="sans-serif" font-size="13" lengthAdjust="spacing" textLength="84" x="249" y="305.5591">api-spec.json</text><text fill="#000000" font-family="sans-serif" font-size="13" lengthAdjust="spacing" textLength="62" x="249" y="320.6919">port:8320</text><!--MD5=[be94901f9595b76c2cef3cf3907baa27]
@startuml
hide footbox
participant "Local\nboxk8s1" as Local
participant "Local\nboxk8s2" as Local2
participant "Local\nAPI Gateway" as APIGW
actor Alice
autonumber 10
Local -> Alice : swagger-ui\nport:8300
Alice <- Local : kubernetes/openapi-spec/swagger.json\nport:8300
autonumber 20
Local2 -> Alice : swagger-ui\nport:8310
Local -> APIGW : /swagger.json\nport:3000
note right
API Gateway/Proxy
Enabling CORS 
allow_origins: *
end note
APIGW -> Alice : api-spec.json\nport:8320
@enduml

PlantUML version 1.2022.7(Tue Aug 23 01:01:30 CST 2022)
(GPL source distribution)
Java Runtime: OpenJDK Runtime Environment
JVM: OpenJDK 64-Bit Server VM
Default Encoding: UTF-8
Language: en
Country: US
--></g></svg>