<?xml version="1.0" encoding="UTF-8" standalone="no"?><svg xmlns="http://www.w3.org/2000/svg" xmlns:xlink="http://www.w3.org/1999/xlink" contentStyleType="text/css" height="417px" preserveAspectRatio="none" style="width:409px;height:417px;background:#FFFFFF;" version="1.1" viewBox="0 0 409 417" width="409px" zoomAndPan="magnify"><defs/><g><line style="stroke:#181818;stroke-width:0.5;stroke-dasharray:5.0,5.0;" x1="41" x2="41" y1="81.2969" y2="336.625"/><line style="stroke:#181818;stroke-width:0.5;stroke-dasharray:5.0,5.0;" x1="124" x2="124" y1="81.2969" y2="336.625"/><line style="stroke:#181818;stroke-width:0.5;stroke-dasharray:5.0,5.0;" x1="239.5" x2="239.5" y1="81.2969" y2="336.625"/><line style="stroke:#181818;stroke-width:0.5;stroke-dasharray:5.0,5.0;" x1="389.5" x2="389.5" y1="81.2969" y2="336.625"/><rect fill="#E2E2F0" height="46.5938" rx="2.5" ry="2.5" style="stroke:#181818;stroke-width:0.5;" width="73" x="5" y="33.7031"/><text fill="#000000" font-family="sans-serif" font-size="14" lengthAdjust="spacing" textLength="35" x="24" y="53.6982">Local</text><text fill="#000000" font-family="sans-serif" font-size="14" lengthAdjust="spacing" textLength="59" x="12" y="69.9951">boxk8s1</text><rect fill="#E2E2F0" height="46.5938" rx="2.5" ry="2.5" style="stroke:#181818;stroke-width:0.5;" width="73" x="5" y="335.625"/><text fill="#000000" font-family="sans-serif" font-size="14" lengthAdjust="spacing" textLength="35" x="24" y="355.6201">Local</text><text fill="#000000" font-family="sans-serif" font-size="14" lengthAdjust="spacing" textLength="59" x="12" y="371.917">boxk8s1</text><rect fill="#E2E2F0" height="46.5938" rx="2.5" ry="2.5" style="stroke:#181818;stroke-width:0.5;" width="73" x="88" y="33.7031"/><text fill="#000000" font-family="sans-serif" font-size="14" lengthAdjust="spacing" textLength="35" x="107" y="53.6982">Local</text><text fill="#000000" font-family="sans-serif" font-size="14" lengthAdjust="spacing" textLength="59" x="95" y="69.9951">boxk8s2</text><rect fill="#E2E2F0" height="46.5938" rx="2.5" ry="2.5" style="stroke:#181818;stroke-width:0.5;" width="73" x="88" y="335.625"/><text fill="#000000" font-family="sans-serif" font-size="14" lengthAdjust="spacing" textLength="35" x="107" y="355.6201">Local</text><text fill="#000000" font-family="sans-serif" font-size="14" lengthAdjust="spacing" textLength="59" x="95" y="371.917">boxk8s2</text><rect fill="#FF0000" height="30.2969" rx="2.5" ry="2.5" style="stroke:#181818;stroke-width:0.5;" width="108" x="185.5" y="50"/><text fill="#000000" font-family="sans-serif" font-size="14" lengthAdjust="spacing" textLength="94" x="192.5" y="69.9951">ReverseProxy</text><rect fill="#FF0000" height="30.2969" rx="2.5" ry="2.5" style="stroke:#181818;stroke-width:0.5;" width="108" x="185.5" y="335.625"/><text fill="#000000" font-family="sans-serif" font-size="14" lengthAdjust="spacing" textLength="94" x="192.5" y="355.6201">ReverseProxy</text><text fill="#000000" font-family="sans-serif" font-size="14" lengthAdjust="spacing" textLength="32" x="370.5" y="77.9951">Alice</text><ellipse cx="389.5" cy="13.5" fill="#E2E2F0" rx="8" ry="8" style="stroke:#181818;stroke-width:0.5;"/><path d="M389.5,21.5 L389.5,48.5 M376.5,29.5 L402.5,29.5 M389.5,48.5 L376.5,63.5 M389.5,48.5 L402.5,63.5 " fill="none" style="stroke:#181818;stroke-width:0.5;"/><text fill="#000000" font-family="sans-serif" font-size="14" lengthAdjust="spacing" textLength="32" x="370.5" y="348.6201">Alice</text><ellipse cx="389.5" cy="360.4219" fill="#E2E2F0" rx="8" ry="8" style="stroke:#181818;stroke-width:0.5;"/><path d="M389.5,368.4219 L389.5,395.4219 M376.5,376.4219 L402.5,376.4219 M389.5,395.4219 L376.5,410.4219 M389.5,395.4219 L402.5,410.4219 " fill="none" style="stroke:#181818;stroke-width:0.5;"/><polygon fill="#181818" points="250.5,108.4297,240.5,112.4297,250.5,116.4297,246.5,112.4297" style="stroke:#181818;stroke-width:1.0;"/><line style="stroke:#181818;stroke-width:1.0;" x1="244.5" x2="388.5" y1="112.4297" y2="112.4297"/><text fill="#000000" font-family="sans-serif" font-size="13" font-weight="bold" lengthAdjust="spacing" textLength="18" x="256.5" y="107.3638">10</text><text fill="#000000" font-family="sans-serif" font-size="13" lengthAdjust="spacing" textLength="104" x="278.5" y="107.3638">box1 swagger-ui</text><polygon fill="#181818" points="227.5,152.6953,237.5,156.6953,227.5,160.6953,231.5,156.6953" style="stroke:#181818;stroke-width:1.0;"/><line style="stroke:#181818;stroke-width:1.0;" x1="41.5" x2="233.5" y1="156.6953" y2="156.6953"/><text fill="#000000" font-family="sans-serif" font-size="13" font-weight="bold" lengthAdjust="spacing" textLength="18" x="48.5" y="144.063">11</text><text fill="#000000" font-family="sans-serif" font-size="13" lengthAdjust="spacing" textLength="69" x="70.5" y="136.4966">swagger-ui</text><text fill="#000000" font-family="sans-serif" font-size="13" lengthAdjust="spacing" textLength="62" x="70.5" y="151.6294">port:3000</text><polygon fill="#181818" points="377.5,196.9609,387.5,200.9609,377.5,204.9609,381.5,200.9609" style="stroke:#181818;stroke-width:1.0;"/><line style="stroke:#181818;stroke-width:1.0;" x1="239.5" x2="383.5" y1="200.9609" y2="200.9609"/><text fill="#000000" font-family="sans-serif" font-size="13" font-weight="bold" lengthAdjust="spacing" textLength="18" x="246.5" y="188.3286">12</text><text fill="#000000" font-family="sans-serif" font-size="13" lengthAdjust="spacing" textLength="69" x="268.5" y="180.7622">swagger-ui</text><text fill="#000000" font-family="sans-serif" font-size="13" lengthAdjust="spacing" textLength="62" x="268.5" y="195.895">port:8320</text><polygon fill="#181818" points="250.5,226.0938,240.5,230.0938,250.5,234.0938,246.5,230.0938" style="stroke:#181818;stroke-width:1.0;"/><line style="stroke:#181818;stroke-width:1.0;" x1="244.5" x2="388.5" y1="230.0938" y2="230.0938"/><text fill="#000000" font-family="sans-serif" font-size="13" font-weight="bold" lengthAdjust="spacing" textLength="18" x="256.5" y="225.0278">20</text><text fill="#000000" font-family="sans-serif" font-size="13" lengthAdjust="spacing" textLength="104" x="278.5" y="225.0278">box2 swagger-ui</text><polygon fill="#181818" points="227.5,270.3594,237.5,274.3594,227.5,278.3594,231.5,274.3594" style="stroke:#181818;stroke-width:1.0;"/><line style="stroke:#181818;stroke-width:1.0;" x1="124.5" x2="233.5" y1="274.3594" y2="274.3594"/><text fill="#000000" font-family="sans-serif" font-size="13" font-weight="bold" lengthAdjust="spacing" textLength="18" x="131.5" y="261.7271">21</text><text fill="#000000" font-family="sans-serif" font-size="13" lengthAdjust="spacing" textLength="69" x="153.5" y="254.1606">swagger-ui</text><text fill="#000000" font-family="sans-serif" font-size="13" lengthAdjust="spacing" textLength="62" x="153.5" y="269.2935">port:3000</text><polygon fill="#181818" points="377.5,314.625,387.5,318.625,377.5,322.625,381.5,318.625" style="stroke:#181818;stroke-width:1.0;"/><line style="stroke:#181818;stroke-width:1.0;" x1="239.5" x2="383.5" y1="318.625" y2="318.625"/><text fill="#000000" font-family="sans-serif" font-size="13" font-weight="bold" lengthAdjust="spacing" textLength="18" x="246.5" y="305.9927">22</text><text fill="#000000" font-family="sans-serif" font-size="13" lengthAdjust="spacing" textLength="69" x="268.5" y="298.4263">swagger-ui</text><text fill="#000000" font-family="sans-serif" font-size="13" lengthAdjust="spacing" textLength="62" x="268.5" y="313.5591">port:8320</text><!--MD5=[2955ccd218aa6fc9d4d7c32c860a7e2a]
@startuml
participant "Local\nboxk8s1" as Local
participant "Local\nboxk8s2" as Local2
participant ReverseProxy #red
actor Alice
autonumber 10
Alice -> ReverseProxy : box1 swagger-ui
Local -> ReverseProxy : swagger-ui\nport:3000
ReverseProxy -> Alice : swagger-ui\nport:8320
autonumber 20
Alice -> ReverseProxy : box2 swagger-ui
Local2 -> ReverseProxy : swagger-ui\nport:3000
ReverseProxy -> Alice : swagger-ui\nport:8320
@enduml

PlantUML version 1.2022.7(Tue Aug 23 01:01:30 CST 2022)
(GPL source distribution)
Java Runtime: OpenJDK Runtime Environment
JVM: OpenJDK 64-Bit Server VM
Default Encoding: UTF-8
Language: en
Country: US
--></g></svg>